<svg id="visual" viewBox="0 0 1920 1080" width="1920" height="1080" xmlns="http://www.w3.org/2000/svg" xmlns:xlink="http://www.w3.org/1999/xlink" version="1.1"><rect x="0" y="0" width="1920" height="1080" fill="#272626"></rect><g transform="translate(-1.9537291572825382 5.283303088601258)"><path d="M85.1 -174.7C110.2 -132.9 130.5 -110 163.1 -84C195.8 -58 240.9 -29 259.1 10.5C277.3 50 268.5 100 236 126.3C203.5 152.5 147.3 155.1 104 171.4C60.7 187.7 30.3 217.9 -12.5 239.5C-55.3 261.2 -110.7 274.3 -151.1 256.3C-191.5 238.3 -217 189.2 -237.5 141.3C-258 93.3 -273.5 46.7 -258.6 8.6C-243.8 -29.5 -198.5 -59 -164.4 -83.4C-130.3 -107.7 -107.3 -126.9 -81.8 -168.4C-56.3 -209.9 -28.1 -273.7 0.9 -275.3C30 -277 60 -216.4 85.1 -174.7" fill="#8776F2"></path></g></svg>